<svg xmlns="http://www.w3.org/2000/svg" viewBox="0 0 512 512">
  <g id="icon">
    <path d="M 120 120 h 120 v 50 h -80 v 60 h 80 v 50 h -120"
          fill="none" stroke="#FFFFFF" stroke-width="30" stroke-linecap="round" stroke-linejoin="round"/>
    <path d="M 430 120 h -70 v 280 h 70"
          fill="none" stroke="#FFFFFF" stroke-width="30" stroke-linecap="round" stroke-linejoin="round"/>
    <circle cx="120" cy="120" r="11" fill="#F28C28"/>
    <circle cx="240" cy="120" r="11" fill="#F28C28"/>
    <circle cx="240" cy="170" r="6" fill="#F28C28"/>
    <circle cx="160" cy="170" r="6" fill="#F28C28"/>
    <circle cx="160" cy="230" r="6" fill="#F28C28"/>
    <circle cx="240" cy="230" r="6" fill="#F28C28"/>
    <circle cx="240" cy="280" r="11" fill="#F28C28"/>
    <circle cx="120" cy="280" r="11" fill="#F28C28"/>
    <circle cx="430" cy="120" r="11" fill="#F28C28"/>
    <circle cx="360" cy="120" r="6" fill="#F28C28"/>
    <circle cx="360" cy="400" r="6" fill="#F28C28"/>
    <circle cx="430" cy="400" r="11" fill="#F28C28"/>
    <line x1="120" y1="120" x2="85" y2="85" stroke="#F28C28" stroke-width="5" stroke-linecap="round"/>
    <circle cx="85" cy="85" r="6" fill="#FFFFFF"/>
    <line x1="240" y1="120" x2="275" y2="120" stroke="#F28C28" stroke-width="5" stroke-linecap="round"/>
    <circle cx="275" cy="120" r="6" fill="#FFFFFF"/>
    <line x1="430" y1="120" x2="465" y2="85" stroke="#F28C28" stroke-width="5" stroke-linecap="round"/>
    <circle cx="465" cy="85" r="6" fill="#FFFFFF"/>
    <line x1="360" y1="400" x2="325" y2="435" stroke="#F28C28" stroke-width="5" stroke-linecap="round"/>
    <circle cx="325" cy="435" r="6" fill="#FFFFFF"/>
    <circle cx="160" cy="230" r="10" fill="none" stroke="#F28C28" stroke-width="2.5"/>
    <circle cx="160" cy="230" r="4" fill="#F28C28"/>
    <circle cx="380" cy="260" r="10" fill="none" stroke="#F28C28" stroke-width="2.5"/>
    <circle cx="380" cy="260" r="4" fill="#F28C28"/>
    <line x1="265" y1="200" x2="335" y2="200" stroke="#F28C28" stroke-width="5" stroke-linecap="round"/>
    <circle cx="300" cy="200" r="5" fill="#F28C28"/>
  </g>
</svg>
